<?xml version='1.0' encoding='utf-8'?>
<svg xmlns="http://www.w3.org/2000/svg" version="1.1" id="Layer_1" x="0px" y="0px" viewBox="0 0 5456 3064" style="enable-background:new 0 0 5456 3064;"> <style type="text/css"> .st0{fill:#DCDDE1;} .st1{stroke:#AFAFAF;stroke-miterlimit:10;} .st2{fill:#AFAFAF;stroke:#AFAFAF;stroke-miterlimit:10;} .st3{stroke:#000000;stroke-miterlimit:10;} .st4{fill:#FFFFFF;} .st5{fill:#494440;} .st6{fill:#F04E4F;} .st7{fill:#FDEC7C;} .st8{fill:#84D081;} .st9{fill:#F5F6FA;} .st10{fill:#353B48;stroke:#000000;stroke-miterlimit:10;} .st11{fill:#718093;} .st12{fill:#353B48;} .st13{fill:#AF2B15;} .st14{fill:#754544;} .st15{fill:#EC7357;} .st16{fill:#FDD692;} .st17{opacity:0.1;} .st18{fill:#41D3BD;} .st19{fill:#4FB0C6;} .st20{fill:#FFFFF2;} .st21{fill:#6E7783;} .st22{fill:#F7F5E4;} .st23{fill:#8EC0E4;} .st24{fill:#FFBC42;} </style> <title>Artboard 1</title> <path id="Layer_14" class="st0" d="M2683.2,1301h1821.5c57.6,0,104.3,46.7,104.3,104.3v1066.3c0,57.6-46.7,104.3-104.3,104.3H2683.2 c-57.6,0-104.3-46.7-104.3-104.3V1405.3C2578.9,1347.7,2625.6,1301,2683.2,1301z"/> <path id="Layer_15" class="st1" d="M2684.4,1312h1819.1c52.2,0,94.5,42.3,94.5,94.5v1070.7c0,52.2-42.3,94.5-94.5,94.5H2684.4 c-52.2,0-94.5-42.3-94.5-94.5V1406.5C2589.9,1354.3,2632.2,1312,2684.4,1312z"/> <path class="st0" d="M2428.6,2463.6h2326.2v102.1H2428.6V2463.6z"/> <path class="st2" d="M2431.2,2565.8l126.8,56.7h1035.9v-56.7C3593.9,2565.8,2431.6,2565.4,2431.2,2565.8L2431.2,2565.8z M4757,2565.8l-126.8,56.7H3594.3v-56.7C3594.3,2565.8,4756.6,2565.4,4757,2565.8z"/> <path class="st2" d="M3469.2,2435.5h249.6c15.7,0,28.4,12.7,28.4,28.4l0,0c0,15.7-12.7,28.4-28.4,28.4h-249.6 c-15.7,0-28.4-12.7-28.4-28.4l0,0C3440.8,2448.2,3453.5,2435.5,3469.2,2435.5z"/> <g id="Layer_13"> <path class="st3" d="M3420.2,2420h358.4v42.9h-358.4V2420z"/> <path class="st4" d="M2653.6,1434.6h1876.3v964.5H2653.6V1434.6z"/> <circle class="st4" cx="3581.3" cy="1379.8" r="22.8"/> </g> <path class="st5" d="M2653.5,1434.6H4530v95.8H2653.5L2653.5,1434.6z"/> <circle class="st6" cx="2713.9" cy="1483.7" r="24"/> <circle class="st7" cx="2782.3" cy="1483.7" r="24"/> <circle class="st8" cx="2850" cy="1483.7" r="24"/> <g> <circle class="st9" cx="753.7" cy="692.3" r="447.6"/> <path class="st10" d="M753.7,190.6c-277.1,0-501.7,224.6-501.7,501.7s224.6,501.7,501.7,501.7s501.7-224.6,501.7-501.7 S1030.8,190.6,753.7,190.6z M753.7,1137.2c-245.7,0-444.9-199.2-444.9-444.9S508,247.4,753.7,247.4s444.9,199.2,444.9,444.9 S999.5,1137.2,753.7,1137.2z"/> <rect x="744.9" y="278.2" class="st11" width="19.3" height="93.4"/> <rect x="485.1" y="384.4" transform="matrix(0.7071 -0.7071 0.7071 0.7071 -159.9194 476.1297)" class="st11" width="19.3" height="93.4"/> <rect x="376.5" y="643.2" transform="matrix(4.481488e-11 -1 1 4.481488e-11 -303.7495 1076.1193)" class="st11" width="19.3" height="93.4"/> <rect x="482.8" y="903" transform="matrix(-0.7071 -0.7071 0.7071 -0.7071 169.0389 1969.5037)" class="st11" width="19.3" height="93.4"/> <rect x="741.6" y="1011.6" transform="matrix(-1 -8.995928e-11 8.995928e-11 -1 1502.4937 2116.675)" class="st11" width="19.3" height="93.4"/> <rect x="1001.4" y="905.4" transform="matrix(-0.7071 0.7071 -0.7071 -0.7071 2399.2195 910.4216)" class="st11" width="19.3" height="93.4"/> <rect x="1110" y="646.6" transform="matrix(-1.346800e-10 1 -1 -1.346800e-10 1812.9257 -426.3744)" class="st11" width="19.3" height="93.4"/> <rect x="1003.8" y="386.7" transform="matrix(0.7071 0.7071 -0.7071 0.7071 603.3309 -589.635)" class="st11" width="19.3" height="93.4"/> <circle class="st12" cx="753.8" cy="692.3" r="31.9"/> <rect x="742.8" y="503.6" class="st12" width="21.9" height="166.6"/> <circle class="st12" cx="754.7" cy="692.9" r="31.9"/> <rect x="845.4" y="673.7" transform="matrix(-0.7171 0.6969 -0.6969 -0.7171 2026.3429 772.6152)" class="st12" width="21.9" height="247.6"/> <rect x="684.1" y="583.8" transform="matrix(-0.8128 -0.5825 0.5825 -0.8128 795.2944 1820.7885)" class="st13" width="12.2" height="397.7"/> </g> <g> <rect x="175" y="1387" class="st14" width="288.6" height="1100.2"/> <rect x="175" y="2382" class="st15" width="288.5" height="30.8"/> <rect x="175" y="2181.4" class="st15" width="288.5" height="30.8"/> <rect x="175" y="2238.8" class="st15" width="288.5" height="117.8"/> <path class="st16" d="M319.3,1580.6c-52.5,0-95,42.5-95,95s42.5,95,95,95s95-42.5,95-95S371.7,1580.6,319.3,1580.6z M319.9,1757.9 c-45.4,0-82.3-36.8-82.3-82.3c0-45.4,36.8-82.3,82.3-82.3s82.3,36.8,82.3,82.3C402.2,1721,365.3,1757.9,319.9,1757.9z"/> <circle class="st16" cx="319.3" cy="1675.7" r="69.3"/> <rect x="317.2" y="1386.8" class="st17" width="146.3" height="1100.2"/> </g> <g> <rect x="560.2" y="1390" class="st18" width="180.8" height="1100.2"/> <rect x="561.3" y="2241.7" class="st19" width="179.3" height="117.8"/> <circle class="st20" cx="650.6" cy="1519.2" r="49.6"/> <rect x="650.2" y="1389.7" class="st17" width="90.3" height="1100.2"/> <rect x="560.2" y="2110.2" class="st19" width="179.3" height="74.2"/> <rect x="560.1" y="1410.3" class="st20" width="180.9" height="47.3"/> </g> <g> <g> <path class="st21" d="M951.6,2151.3c79.1,0,143.3-63.5,143.3-141.9c0-78.4-64.1-141.9-143.3-141.9l2.3-22.5c0,0,166-5.5,166,164.4 s-166,164.4-166,164.4L951.6,2151.3z"/> <path class="st21" d="M953.8,2173.9c91.7,0,166-73.6,166-164.4c0-90.8-74.3-164.4-166-164.4l830.1-2.3c91.7,0,166,73.6,166,164.4 s-74.3,164.4-166,164.4L953.8,2173.9z"/> </g> <g> <path class="st20" d="M1784.8,2150.8H956.2c-1.4,0-2.8,0.1-4.3,0.1h828.6C1781.9,2150.8,1783.4,2150.8,1784.8,2150.8z"/> <path class="st20" d="M1885.2,1913.2c12.7,13.6,22.8,29.7,29.4,47.5"/> <path class="st20" d="M1885.2,1913.2h-828.6c12.7,13.6,22.8,29.7,29.4,47.5h828.6C1908,1942.9,1897.9,1926.8,1885.2,1913.2z"/> <path class="st20" d="M951.9,1867.9h828.6c41.3,0,78.6,17.4,104.7,45.3"/> <path class="st22" d="M1056.6,1913.2h828.6c-26.1-27.8-63.3-45.3-104.7-45.3H951.9C993.3,1867.9,1030.5,1885.3,1056.6,1913.2z"/> <path class="st20" d="M1914.6,1960.7c5.5,14.8,8.5,30.8,8.7,47.5"/> <path class="st22" d="M1914.6,1960.7H1086c5.5,14.8,8.5,30.8,8.7,47.5h828.6C1923.1,1991.5,1920.1,1975.5,1914.6,1960.7z"/> <path class="st20" d="M1923.2,2008.2c0,0.4,0,0.8,0,1.2c0,16.2-2.8,31.8-7.9,46.4"/> <path class="st20" d="M1923.2,2009.4c0-0.4,0-0.8,0-1.2h-828.6c0,0.4,0,0.8,0,1.2c0,16.2-2.8,31.8-7.9,46.4h828.6 C1920.5,2041.2,1923.2,2025.6,1923.2,2009.4z"/> <path class="st20" d="M1915.4,2055.7c-6.2,17.7-15.8,33.8-28.1,47.5"/> <path class="st22" d="M1086.8,2055.7c-6.2,17.7-15.8,33.8-28.1,47.5h828.6c12.3-13.7,21.9-29.8,28.1-47.5H1086.8z"/> <path class="st20" d="M1887.3,2103.3c-25.3,28.2-61.7,46.3-102.5,47.5"/> <path class="st20" d="M1887.3,2103.3h-828.6c-25.3,28.2-61.7,46.3-102.5,47.5h828.6C1825.5,2149.6,1862,2131.5,1887.3,2103.3z"/> </g> <path class="st17" d="M1094.3,2006.8c0,0.4,0,0.8,0,1.2c0,16.2-2.8,31.8-7.9,46.4c-6.2,17.7-15.8,33.8-28.1,47.5 c-25.3,28.2-61.7,46.3-102.5,47.5c-1.4,0-2.8,0.1-4.3,0.1h11.6c-3.9,0.3-7.9,0.5-11.9,0.5l2.3,22.5c0,0,1.6,0.1,4.4,0l825.7-2.2 c91.7,0,166-73.6,166-164.4L1094.3,2006.8z"/> </g> <g> <rect x="1262.3" y="1773.5" transform="matrix(-1.836970e-16 1 -1 -1.836970e-16 3741.1731 923.4037)" class="st23" width="293.2" height="1117.7"/> <rect x="794.7" y="2316.6" transform="matrix(-1.836970e-16 1 -1 -1.836970e-16 3273.5771 1390.9995)" class="st24" width="293.1" height="31.3"/> <rect x="896.1" y="2272.4" transform="matrix(-1.836970e-16 1 -1 -1.836970e-16 3374.9045 1289.6721)" class="st24" width="293.1" height="119.7"/> <rect x="1600.5" y="2235.3" class="st16" width="189.4" height="196"/> <rect x="1334.8" y="1845.7" transform="matrix(-1.836970e-16 1 -1 -1.836970e-16 3813.7043 995.3719)" class="st17" width="148.7" height="1117.7"/> </g> </svg>