<?xml version="1.0" encoding="UTF-8"?>
<svg version="1.1" viewBox="0 0 64 64" xmlns="http://www.w3.org/2000/svg">
 <defs>
  <linearGradient id="a" x1="-987.07" x2="-987.79" y1="171.03" y2="192.75" gradientTransform="matrix(.41463 0 0 .43437 432.99 -42.298)" gradientUnits="userSpaceOnUse">
   <stop stop-color="#005c94" offset="0"/>
   <stop stop-color="#19aeff" offset="1"/>
  </linearGradient>
 </defs>
 <g stroke-width="0">
  <g stroke="#1757cc" stroke-linecap="square" stroke-linejoin="round">
   <rect x="14.71" y="27.588" width="4.0537" height="24.536" rx="2.0268" ry="2.1233" fill="url(#a)"/>
   <rect x="21.344" y="27.588" width="4.0537" height="24.536" rx="2.0268" ry="2.1233" fill="url(#a)"/>
   <rect x="27.978" y="27.588" width="4.0537" height="24.536" rx="2.0268" ry="2.1233" fill="url(#a)"/>
   <rect x="34.612" y="27.588" width="4.0537" height="24.536" rx="2.0268" ry="2.1233" fill="url(#a)"/>
   <rect x="41.246" y="27.588" width="4.0537" height="24.536" rx="2.0268" ry="2.1233" fill="url(#a)"/>
   <rect x="47.88" y="27.588" width="4.0537" height="24.536" rx="2.0268" ry="2.1233" fill="url(#a)"/>
   <rect x="9.6051" y="54.483" width="49.395" height="2.5165" rx="0" ry="0" fill="#19aeff"/>
  </g>
  <g stroke-linecap="round">
   <path d="m31.805 7.0036c-0.2505 0.00134-0.53621 0.10303-0.84223 0.31221l-20.188 13.791c-0.97928 0.66935-1.7752 2.1958-1.7752 3.4207 0 0.82946 0.36952 1.3056 0.90701 1.3167 0.31848 0.29859 0.74203 0.48867 1.205 0.48867h44.431c0.99811 0 1.8011-0.84118 1.8011-1.8868 0-0.17427-0.02296-0.34225-0.0648-0.50225 0.09574-0.05319 0.03191-0.19452-0.15549-0.40722-0.01012-0.01146-0.01506-0.01524-0.0259-0.02714-0.20759-0.37973-0.52315-0.6738-0.91998-0.82803-3.2727-2.6522-12.758-8.7482-18.568-12.42l-4.3148-2.9456c-0.44636-0.3051-0.85571-0.38471-1.1662-0.25791-0.098516-0.040791-0.20772-0.054959-0.32394-0.0543z" fill="#005c94" stroke="#000"/>
  </g>
 </g>
</svg>
